<svg width="143" height="42" viewBox="0 0 143 42" fill="none" xmlns="http://www.w3.org/2000/svg">
<path d="M61.7767 6.84865C64.2896 6.84865 66.5973 7.45124 68.7 8.65641C70.8283 9.83593 72.5078 11.4642 73.7386 13.5412C74.9694 15.5925 75.5848 17.8747 75.5848 20.3876C75.5848 22.9005 74.9694 25.1826 73.7386 27.234C72.5078 29.2597 70.8283 30.8623 68.7 32.0418C66.5973 33.1957 64.2896 33.7727 61.7767 33.7727H51.084V6.84865H61.7767ZM61.7767 29.0033C63.3921 29.0033 64.8665 28.6315 66.1999 27.8878C67.5333 27.1186 68.5846 26.0673 69.3538 24.7339C70.1488 23.4005 70.5462 21.9389 70.5462 20.3491C70.5462 18.7593 70.1488 17.2977 69.3538 15.9644C68.5846 14.6053 67.5333 13.5412 66.1999 12.7719C64.8665 12.0027 63.3921 11.618 61.7767 11.618H56.1226V29.0033H61.7767Z" fill="#1B1C1E"/>
<path d="M87.7992 14.0412C89.6454 14.0412 91.2993 14.5028 92.7609 15.4259C94.2481 16.3233 95.402 17.5413 96.2226 19.0798C97.0431 20.6184 97.4534 22.3235 97.4534 24.1954C97.4534 24.8108 97.4021 25.3749 97.2995 25.8878H82.4529C82.8375 27.2468 83.517 28.3109 84.4914 29.0802C85.4658 29.8238 86.7094 30.1956 88.2223 30.1956C89.1454 30.1956 90.03 29.9905 90.8762 29.5802C91.7481 29.1699 92.4019 28.6443 92.8378 28.0032L96.4918 30.1572C95.5943 31.4905 94.4276 32.5162 92.9917 33.2342C91.5814 33.9265 89.9531 34.2727 88.1069 34.2727C86.0556 34.2727 84.235 33.8368 82.6452 32.9649C81.0554 32.0931 79.8246 30.888 78.9527 29.3494C78.1066 27.8109 77.6835 26.0801 77.6835 24.1569C77.6835 22.2594 78.1066 20.5414 78.9527 19.0029C79.8246 17.4644 81.0297 16.2592 82.5683 15.3874C84.1068 14.4899 85.8504 14.0412 87.7992 14.0412ZM92.9917 22.1569C92.7866 20.9261 92.2096 19.9645 91.2609 19.2722C90.3378 18.5542 89.171 18.1952 87.7607 18.1952C86.7864 18.1952 85.8889 18.3747 85.0683 18.7337C84.2734 19.0927 83.6324 19.5799 83.1452 20.1953C82.658 20.8107 82.4016 21.4645 82.3759 22.1569H92.9917Z" fill="#1B1C1E"/>
<path d="M110.453 34.2727C107.812 34.2727 105.594 33.6829 103.799 32.5034C102.004 31.3239 100.748 29.7341 100.03 27.734L104.261 25.2339C105.312 27.9776 107.415 29.3494 110.569 29.3494C111.979 29.3494 113.069 29.0161 113.838 28.3494C114.607 27.6827 114.992 26.9135 114.992 26.0416C114.992 25.1698 114.569 24.4647 113.723 23.9262C112.902 23.3877 111.428 22.8107 109.299 22.1953C107.633 21.6825 106.222 21.1312 105.068 20.5414C103.915 19.926 102.966 19.1055 102.222 18.0798C101.504 17.0541 101.145 15.7592 101.145 14.1951C101.145 12.6053 101.543 11.2206 102.338 10.0411C103.132 8.8359 104.184 7.92561 105.492 7.31021C106.825 6.66916 108.274 6.34863 109.838 6.34863C112.017 6.34863 113.902 6.87429 115.492 7.92561C117.107 8.95129 118.351 10.4001 119.223 12.2719L114.915 14.7335C113.915 12.4514 112.223 11.3103 109.838 11.3103C108.761 11.3103 107.876 11.5924 107.184 12.1565C106.492 12.7207 106.145 13.3873 106.145 14.1566C106.145 14.7464 106.299 15.2464 106.607 15.6567C106.94 16.0669 107.453 16.4387 108.145 16.7721C108.863 17.1054 109.902 17.4772 111.261 17.8875C113.03 18.4516 114.517 19.0414 115.723 19.6568C116.953 20.2722 117.966 21.1312 118.761 22.2338C119.582 23.3108 119.992 24.6698 119.992 26.3109C119.992 27.9263 119.582 29.3366 118.761 30.5418C117.941 31.747 116.8 32.6701 115.338 33.3111C113.902 33.9522 112.274 34.2727 110.453 34.2727Z" fill="#1B1C1E"/>
<path d="M131.896 34.3111C130.076 34.3111 128.383 33.8624 126.819 32.9649C125.281 32.0418 124.05 30.811 123.127 29.2725C122.229 27.7084 121.781 26.016 121.781 24.1954C121.781 22.3748 122.229 20.6953 123.127 19.1568C124.05 17.5926 125.281 16.3618 126.819 15.4643C128.383 14.5412 130.076 14.0797 131.896 14.0797C133.717 14.0797 135.396 14.5412 136.935 15.4643C138.499 16.3618 139.73 17.5926 140.627 19.1568C141.55 20.6953 142.012 22.3748 142.012 24.1954C142.012 26.016 141.55 27.7084 140.627 29.2725C139.73 30.811 138.499 32.0418 136.935 32.9649C135.396 33.8624 133.717 34.3111 131.896 34.3111ZM131.858 29.5418C132.832 29.5418 133.73 29.311 134.55 28.8494C135.371 28.3622 136.025 27.7084 136.512 26.8878C136.999 26.0673 137.243 25.1698 137.243 24.1954C137.243 23.221 136.999 22.3235 136.512 21.503C136.025 20.6825 135.371 20.0286 134.55 19.5414C133.73 19.0542 132.832 18.8106 131.858 18.8106C130.883 18.8106 129.986 19.0542 129.165 19.5414C128.345 20.0286 127.691 20.6825 127.204 21.503C126.742 22.3235 126.511 23.221 126.511 24.1954C126.511 25.1698 126.742 26.0673 127.204 26.8878C127.691 27.7084 128.345 28.3622 129.165 28.8494C129.986 29.311 130.883 29.5418 131.858 29.5418Z" fill="#1B1C1E"/>
<path d="M0.000488281 0.449219V10.746L27.1017 25.8016L0.000488281 41.6428H22.3303C29.4652 41.6428 35.2441 36.5736 35.2441 30.3195V21.0492L0.000488281 0.449219Z" fill="url(#paint0_linear)"/>
<path d="M0.000488281 0.449219L35.2441 21.0492V11.7725C35.2441 5.51842 29.4589 0.449219 22.3303 0.449219H0.000488281Z" fill="url(#paint1_linear)"/>
<path d="M18.5406 21.0493L0 31.3461V41.643L27.1012 25.8017L18.5406 21.0493Z" fill="url(#paint2_linear)"/>
<defs>
<linearGradient id="paint0_linear" x1="8.66429" y1="9.7133" x2="20.9228" y2="39.3188" gradientUnits="userSpaceOnUse">
<stop stop-color="#0057FF"/>
<stop offset="1" stop-color="#00A3FF"/>
</linearGradient>
<linearGradient id="paint1_linear" x1="14.4149" y1="9.92262" x2="37.2193" y2="3.89881" gradientUnits="userSpaceOnUse">
<stop stop-color="#0283FF"/>
<stop offset="1" stop-color="#01C2FF"/>
</linearGradient>
<linearGradient id="paint2_linear" x1="6.57689" y1="37.8277" x2="38.515" y2="-4.55173" gradientUnits="userSpaceOnUse">
<stop stop-color="#0157FF"/>
<stop offset="1" stop-color="#00FFFF"/>
</linearGradient>
</defs>
</svg>
