<svg width="19" height="19" viewBox="0 0 19 19" fill="none" xmlns="http://www.w3.org/2000/svg">
<path d="M12.7178 6.51392H17.1178C17.2769 6.51392 17.4295 6.57713 17.542 6.68965C17.6546 6.80217 17.7178 6.95479 17.7178 7.11392V16.9139C17.7178 17.073 17.6546 17.2257 17.542 17.3382C17.4295 17.4507 17.2769 17.5139 17.1178 17.5139H7.31777C7.15864 17.5139 7.00603 17.4507 6.89351 17.3382C6.78099 17.2257 6.71777 17.073 6.71777 16.9139V12.5139M12.7178 6.51392H7.31777C7.15864 6.51392 7.00603 6.57713 6.89351 6.68965C6.78099 6.80217 6.71777 6.95479 6.71777 7.11392V12.5139M12.7178 6.51392V2.11392C12.7178 1.95479 12.6546 1.80217 12.542 1.68965C12.4295 1.57713 12.2769 1.51392 12.1178 1.51392H2.31777C2.15864 1.51392 2.00603 1.57713 1.89351 1.68965C1.78099 1.80217 1.71777 1.95479 1.71777 2.11392V11.9139C1.71777 12.073 1.78099 12.2257 1.89351 12.3382C2.00603 12.4507 2.15864 12.5139 2.31777 12.5139H6.71777" stroke="#292941" stroke-width="1.6" stroke-linecap="round" stroke-linejoin="round"/>
</svg>
