<svg width="33" height="33" viewBox="0 0 33 33" fill="none" xmlns="http://www.w3.org/2000/svg">
<circle cx="16.1562" cy="16.1167" r="16" fill="white"/>
<path d="M28.6307 16.3989C28.6458 15.5234 28.5552 14.6478 28.364 13.7975H16.4087V18.5223H23.4279C23.1612 20.1978 22.2203 21.6872 20.8265 22.6533L20.8014 22.8093L24.5802 25.7377L24.8418 25.7629C27.242 23.5439 28.6307 20.2783 28.6307 16.3989Z" fill="#4285F4"/>
<path d="M16.4093 28.8473C19.8459 28.8473 22.7341 27.7152 24.8424 25.7629L20.8271 22.6483C19.5239 23.5238 17.9792 23.9666 16.4143 23.9213C13.1135 23.9012 10.1951 21.7677 9.16863 18.6279L9.01768 18.643L5.08791 21.6822L5.0376 21.8231C7.19117 26.1352 11.5939 28.8524 16.4093 28.8473Z" fill="#34A853"/>
<path d="M9.16328 18.633C8.88653 17.8228 8.74061 16.9725 8.74061 16.1121C8.74564 15.2567 8.88653 14.4063 9.15321 13.5912L9.14818 13.4251L5.1681 10.3357L5.03727 10.396C3.22586 13.9937 3.22586 18.2304 5.03727 21.8281L9.16328 18.633Z" fill="#FBBC05"/>
<path d="M16.4091 8.30786C18.2356 8.27767 19.9967 8.95695 21.3301 10.2048L24.9227 6.69771C22.6182 4.53407 19.564 3.35162 16.404 3.38684C11.5887 3.38684 7.18595 6.09893 5.02734 10.4061L9.14328 13.6012C10.1798 10.4614 13.1032 8.32798 16.4091 8.30786Z" fill="#EB4335"/>
</svg>
