<svg width="342" height="451" viewBox="0 0 342 451" fill="none" xmlns="http://www.w3.org/2000/svg">
<path d="M101.696 234.863C112.63 116.229 170.923 50.5013 227.283 35.8751C245.436 31.1502 263.377 31.7521 279.475 37.5906L187.112 4.63654C121.027 -18.6871 24.3447 45.8065 9.93757 202.15L0.0307617 303.239L40.2319 317.564L91.85 335.952L101.757 234.863H101.696Z" fill="url(#paint0_linear_1_3447)"/>
<path d="M144.403 413.688C135.1 399.754 129.966 382.69 131.113 364.061L133.741 321.356L91.7883 335.922L40.1702 317.534L39.3245 331.318C37.1498 366.98 57.8696 396.865 86.9557 410.077C90.9124 411.882 95.0201 413.357 99.2486 414.5L184.363 445.137H184.393C168.113 439.118 154.038 428.073 144.403 413.658V413.688Z" fill="url(#paint1_linear_1_3447)"/>
<path d="M281.015 38.1924C280.502 37.9817 279.988 37.7711 279.444 37.5604C263.346 31.722 245.405 31.1502 227.253 35.845C170.892 50.4712 112.599 116.199 101.666 234.833L91.7588 335.922L133.712 321.356L131.084 364.061C129.936 382.69 135.071 399.754 144.374 413.688C154.009 428.103 168.084 439.148 184.363 445.137C201.096 451.276 220.094 452.059 238.911 445.558L341.302 410.136V151.62C341.302 89.5646 315.598 51.5847 280.985 38.1924H281.015Z" fill="url(#paint2_linear_1_3447)"/>
<defs>
<linearGradient id="paint0_linear_1_3447" x1="216.816" y1="484.405" x2="359.53" y2="35.6785" gradientUnits="userSpaceOnUse">
<stop/>
<stop/>
<stop offset="0.270833" stop-color="#186FFF"/>
<stop offset="0.536458" stop-color="#05C3FF"/>
<stop offset="0.708333" stop-color="white"/>
<stop offset="0.869792" stop-color="#05C3FF"/>
<stop offset="1" stop-color="#186FFF"/>
</linearGradient>
<linearGradient id="paint1_linear_1_3447" x1="93.3129" y1="189.371" x2="13.7224" y2="496.755" gradientUnits="userSpaceOnUse">
<stop offset="0.209739"/>
<stop offset="0.547622" stop-color="#186FFF"/>
<stop offset="0.929847"/>
</linearGradient>
<linearGradient id="paint2_linear_1_3447" x1="591.44" y1="450.098" x2="6.86147" y2="-4.54022e-05" gradientUnits="userSpaceOnUse">
<stop/>
<stop offset="0.302083" stop-color="#186FFF"/>
<stop offset="0.640625" stop-color="#05C3FF"/>
<stop offset="1" stop-color="white"/>
</linearGradient>
</defs>
</svg>
