<svg width="15" height="19" viewBox="0 0 15 19" fill="none" xmlns="http://www.w3.org/2000/svg">
<path d="M4.8042 7.07958V4.92911C4.8042 4.13064 5.12139 3.36487 5.686 2.80026C6.25061 2.23565 7.01638 1.91846 7.81485 1.91846C8.61333 1.91846 9.3791 2.23565 9.94371 2.80026C10.5083 3.36487 10.8255 4.13064 10.8255 4.92911V7.07958" stroke="#19B028" stroke-width="2" stroke-linecap="round" stroke-linejoin="round"/>
<path d="M12.8379 7.07959H2.79248C1.68791 7.07959 0.79248 7.97502 0.79248 9.07959V16.5712C0.79248 17.6758 1.68791 18.5712 2.79248 18.5712H12.8379C13.9425 18.5712 14.8379 17.6758 14.8379 16.5712V9.07959C14.8379 7.97502 13.9425 7.07959 12.8379 7.07959Z" fill="#19B028"/>
</svg>
