<svg width="4571" height="1139" viewBox="0 0 4571 1139" fill="none" xmlns="http://www.w3.org/2000/svg">
<path d="M0.0144043 0V284.69L728.216 700.95L0.0144043 1138.93H600.01C791.723 1138.93 947 998.779 947 825.863V569.555L0.0144043 0Z" fill="url(#paint0_linear_3_20)"/>
<path d="M0.0144043 0L947 569.554V313.07C947 140.155 791.553 0 600.01 0H0.0144043Z" fill="url(#paint1_linear_3_20)"/>
<path d="M498.181 569.558L0 854.248V1138.94L728.202 700.954L498.181 569.558Z" fill="url(#paint2_linear_3_20)"/>
<path d="M1708.48 87.846C1798.13 87.846 1880.46 109.353 1955.48 152.366C2031.41 194.464 2091.33 252.578 2135.24 326.707C2179.15 399.921 2201.11 481.372 2201.11 571.059C2201.11 660.746 2179.15 742.197 2135.24 815.411C2091.33 887.71 2031.41 944.909 1955.48 987.007C1880.46 1028.19 1798.13 1048.78 1708.48 1048.78H1327V87.846H1708.48ZM1708.48 878.558C1766.11 878.558 1818.71 865.288 1866.28 838.748C1913.85 811.293 1951.36 773.771 1978.81 726.182C2007.17 678.592 2021.35 626.427 2021.35 569.686C2021.35 512.945 2007.17 460.78 1978.81 413.191C1951.36 364.687 1913.85 326.707 1866.28 299.252C1818.71 271.796 1766.11 258.069 1708.48 258.069H1506.76V878.558H1708.48Z" fill="white"/>
<path d="M2636.87 344.553C2702.74 344.553 2761.75 361.026 2813.89 393.973C2866.95 426.004 2908.12 469.475 2937.39 524.385C2966.66 579.296 2981.3 640.155 2981.3 706.963C2981.3 728.927 2979.47 749.061 2975.81 767.365H2446.13C2459.86 815.869 2484.1 853.849 2518.86 881.304C2553.62 907.844 2597.99 921.114 2651.97 921.114C2684.9 921.114 2716.46 913.793 2746.65 899.15C2777.75 884.507 2801.08 865.746 2816.63 842.867L2947 919.741C2914.98 967.331 2873.35 1003.94 2822.12 1029.56C2771.81 1054.27 2713.72 1066.63 2647.85 1066.63C2574.67 1066.63 2509.71 1051.07 2452.99 1019.95C2396.28 988.837 2352.37 945.824 2321.26 890.913C2291.07 836.003 2275.98 774.228 2275.98 705.59C2275.98 637.867 2291.07 576.55 2321.26 521.64C2352.37 466.729 2395.36 423.716 2450.25 392.6C2505.14 360.569 2567.35 344.553 2636.87 344.553ZM2822.12 634.206C2814.8 590.278 2794.22 555.959 2760.37 531.249C2727.44 505.624 2685.82 492.812 2635.5 492.812C2600.74 492.812 2568.72 499.218 2539.45 512.03C2511.09 524.843 2488.22 542.231 2470.83 564.195C2453.45 586.16 2444.3 609.497 2443.39 634.206H2822.12Z" fill="white"/>
<path d="M3445.09 1066.63C3350.87 1066.63 3271.73 1045.58 3207.7 1003.48C3143.66 961.382 3098.83 904.641 3073.22 833.257L3224.16 744.027C3261.67 841.951 3336.69 890.913 3449.21 890.913C3499.52 890.913 3538.4 879.016 3565.85 855.221C3593.29 831.427 3607.01 803.972 3607.01 772.856C3607.01 741.74 3591.92 716.572 3561.73 697.354C3532.46 678.135 3479.85 657.543 3403.92 635.579C3344.46 617.276 3294.15 597.599 3252.98 576.55C3211.81 554.586 3177.96 525.3 3151.44 488.693C3125.82 452.086 3113.01 405.87 3113.01 350.044C3113.01 293.303 3127.19 243.884 3155.55 201.785C3183.91 158.772 3221.42 126.283 3268.07 104.319C3315.64 81.4397 3367.33 70 3423.14 70C3500.89 70 3568.13 88.7611 3624.85 126.283C3682.49 162.89 3726.85 214.598 3757.96 281.406L3604.27 369.263C3568.59 287.812 3508.21 247.087 3423.14 247.087C3384.71 247.087 3353.15 257.154 3328.45 277.288C3303.75 297.421 3291.4 321.216 3291.4 348.671C3291.4 369.72 3296.89 387.566 3307.87 402.209C3319.76 416.852 3338.06 430.122 3362.76 442.019C3388.37 453.917 3425.42 467.187 3473.91 481.829C3537.03 501.963 3590.09 523.012 3633.09 544.977C3677 566.941 3713.13 597.599 3741.49 636.952C3770.77 675.389 3785.4 723.894 3785.4 782.465C3785.4 840.121 3770.77 890.456 3741.49 933.469C3712.22 976.482 3671.51 1009.43 3619.36 1032.31C3568.13 1055.19 3510.04 1066.63 3445.09 1066.63Z" fill="white"/>
<path d="M4210.11 1068C4145.15 1068 4084.78 1051.98 4028.97 1019.95C3974.08 987.007 3930.17 943.078 3897.24 888.168C3865.22 832.342 3849.21 771.94 3849.21 706.963C3849.21 641.985 3865.22 582.041 3897.24 527.131C3930.17 471.305 3974.08 427.376 4028.97 395.345C4084.78 362.399 4145.15 345.926 4210.11 345.926C4275.06 345.926 4334.98 362.399 4389.87 395.345C4445.67 427.376 4489.58 471.305 4521.6 527.131C4554.53 582.041 4571 641.985 4571 706.963C4571 771.94 4554.53 832.342 4521.6 888.168C4489.58 943.078 4445.67 987.007 4389.87 1019.95C4334.98 1051.98 4275.06 1068 4210.11 1068ZM4208.73 897.777C4243.5 897.777 4275.51 889.541 4304.79 873.067C4334.06 855.679 4357.39 832.342 4374.77 803.056C4392.15 773.771 4400.84 741.74 4400.84 706.963C4400.84 672.186 4392.15 640.155 4374.77 610.869C4357.39 581.584 4334.06 558.247 4304.79 540.858C4275.51 523.47 4243.5 514.776 4208.73 514.776C4173.97 514.776 4141.95 523.47 4112.68 540.858C4083.4 558.247 4060.08 581.584 4042.69 610.869C4026.23 640.155 4017.99 672.186 4017.99 706.963C4017.99 741.74 4026.23 773.771 4042.69 803.056C4060.08 832.342 4083.4 855.679 4112.68 873.067C4141.95 889.541 4173.97 897.777 4208.73 897.777Z" fill="white"/>
<defs>
<linearGradient id="paint0_linear_3_20" x1="131.001" y1="249" x2="917.503" y2="1165.12" gradientUnits="userSpaceOnUse">
<stop stop-color="#0085FF"/>
<stop offset="1" stop-color="#7EC0FF"/>
</linearGradient>
<linearGradient id="paint1_linear_3_20" x1="511.001" y1="393" x2="821.09" y2="-38.6252" gradientUnits="userSpaceOnUse">
<stop stop-color="#CEEAFF"/>
<stop offset="0.626823" stop-color="#72B9FF"/>
<stop offset="1" stop-color="#63B1FF" stop-opacity="0.58"/>
</linearGradient>
<linearGradient id="paint2_linear_3_20" x1="-157" y1="1113" x2="907.884" y2="498.246" gradientUnits="userSpaceOnUse">
<stop stop-color="#2875EA"/>
<stop offset="1" stop-color="#082967"/>
<stop offset="1" stop-color="#0038FF"/>
</linearGradient>
</defs>
</svg>
