<svg width="19" height="18" viewBox="0 0 19 18" fill="none" xmlns="http://www.w3.org/2000/svg">
<path d="M4.70164 14.3648L4.41181 16.398C4.40111 16.4727 4.4066 16.5489 4.42791 16.6213C4.44923 16.6938 4.48586 16.7608 4.53533 16.8179C4.5848 16.8749 4.64596 16.9207 4.71466 16.952C4.78335 16.9834 4.85799 16.9996 4.9335 16.9996H14.2572C14.3328 16.9996 14.4074 16.9834 14.4761 16.952C14.5448 16.9207 14.6059 16.8749 14.6554 16.8179C14.7049 16.7608 14.7415 16.6938 14.7628 16.6213C14.7841 16.5489 14.7896 16.4727 14.7789 16.398L14.4882 14.3648L14.0517 11.304C14.0338 11.1784 13.9711 11.0636 13.8753 10.9805C13.7795 10.8974 13.6569 10.8517 13.53 10.8517H5.66071C5.53388 10.8517 5.4113 10.8974 5.31546 10.9805C5.21963 11.0636 5.15699 11.1784 5.13902 11.304L4.70339 14.3648H2.21788C2.07812 14.3648 1.94409 14.3092 1.84526 14.2104C1.74644 14.1116 1.69092 13.9776 1.69092 13.8378V8.21686C1.69092 7.28513 2.06105 6.39156 2.71988 5.73273C3.37871 5.07389 4.27228 4.70376 5.20401 4.70376H13.9867C14.9185 4.70376 15.812 5.07389 16.4709 5.73273C17.1297 6.39156 17.4998 7.28513 17.4998 8.21686V13.8378C17.4998 13.9776 17.4443 14.1116 17.3455 14.2104C17.2467 14.3092 17.1126 14.3648 16.9729 14.3648H14.4891M6.08228 4.70376V1.71764C6.08228 1.57788 6.1378 1.44384 6.23663 1.34502C6.33545 1.24619 6.46949 1.19067 6.60925 1.19067H12.5815C12.7213 1.19067 12.8553 1.24619 12.9541 1.34502C13.0529 1.44384 13.1085 1.57788 13.1085 1.71764V4.70376H6.08228Z" stroke="#292941" stroke-width="1.6" stroke-linecap="round" stroke-linejoin="round"/>
<path d="M13.9868 7.34763L13.9959 7.33765" stroke="#292941" stroke-width="1.6" stroke-linecap="round" stroke-linejoin="round"/>
</svg>
